<?xml version="1.0" encoding="UTF-8"?>
<svg id="Layer_1" data-name="Layer 1" xmlns="http://www.w3.org/2000/svg" width="1262.65" height="272.55" viewBox="0 0 1262.65 272.55">
  <defs>
    <style>
      .cls-1 {
        fill: #f2f2f2;
      }
    </style>
  </defs>
  <g>
    <path class="cls-1" d="m62.4,128.54l-19.19-77.53v84c0,4.65-1.02,8.13-3.06,10.46s-4.75,3.49-8.13,3.49-5.93-1.15-8-3.44c-2.07-2.3-3.1-5.8-3.1-10.5V38.72c0-5.31,1.36-8.89,4.08-10.75,2.72-1.85,6.4-2.78,11.02-2.78h7.51c4.52,0,7.8.41,9.84,1.24,2.04.83,3.55,2.32,4.53,4.48s2.1,5.67,3.35,10.54l17.39,66.65,17.39-66.65c1.25-4.87,2.37-8.38,3.35-10.54s2.49-3.65,4.53-4.48,5.32-1.24,9.84-1.24h7.51c4.63,0,8.3.93,11.02,2.78,2.72,1.85,4.08,5.44,4.08,10.75v96.29c0,4.65-1.02,8.13-3.06,10.46s-4.78,3.49-8.21,3.49c-3.21,0-5.85-1.16-7.92-3.49-2.07-2.32-3.1-5.81-3.1-10.46V51.01l-19.19,77.53c-1.25,5.04-2.27,8.73-3.06,11.08-.79,2.35-2.25,4.5-4.37,6.43-2.12,1.94-5.06,2.9-8.82,2.9-2.83,0-5.23-.62-7.19-1.87s-3.48-2.84-4.57-4.77c-1.09-1.94-1.95-4.08-2.57-6.43-.63-2.35-1.27-4.8-1.92-7.35Z"/>
    <path class="cls-1" d="m197.25,23.12c12.41,0,23.07,2.56,31.97,7.68,8.9,5.12,15.64,12.4,20.21,21.83,4.57,9.44,6.86,20.52,6.86,33.24,0,9.41-1.25,17.96-3.76,25.65-2.5,7.69-6.26,14.36-11.27,20-5.01,5.64-11.16,9.96-18.46,12.95-7.3,2.99-15.65,4.48-25.07,4.48s-17.75-1.54-25.15-4.61c-7.4-3.07-13.58-7.4-18.54-12.99-4.95-5.59-8.7-12.31-11.23-20.17s-3.8-16.35-3.8-25.48,1.32-17.93,3.96-25.73c2.64-7.8,6.46-14.44,11.47-19.92,5.01-5.48,11.11-9.67,18.29-12.58s15.35-4.36,24.5-4.36Zm34.46,62.59c0-8.91-1.42-16.63-4.25-23.16-2.83-6.53-6.87-11.47-12.13-14.82-5.25-3.35-11.28-5.02-18.09-5.02-4.85,0-9.32.93-13.43,2.78-4.11,1.85-7.65,4.55-10.62,8.09-2.97,3.54-5.31,8.07-7.02,13.57-1.72,5.51-2.57,11.69-2.57,18.55s.86,13.17,2.57,18.76c1.71,5.59,4.14,10.22,7.27,13.9,3.13,3.68,6.72,6.43,10.78,8.26,4.06,1.83,8.51,2.74,13.35,2.74,6.21,0,11.91-1.58,17.11-4.73,5.2-3.15,9.34-8.02,12.41-14.61,3.08-6.59,4.61-14.69,4.61-24.32Z"/>
    <path class="cls-1" d="m306.78,99.48h-22.21v34.45c0,4.93-1.14,8.66-3.43,11.21s-5.17,3.82-8.66,3.82-6.59-1.26-8.82-3.78c-2.23-2.52-3.35-6.21-3.35-11.08V40.3c0-5.42,1.22-9.3,3.67-11.62,2.45-2.32,6.34-3.49,11.68-3.49h31.11c9.2,0,16.28.72,21.23,2.16,4.9,1.38,9.13,3.68,12.7,6.89,3.57,3.21,6.27,7.14,8.13,11.79,1.85,4.65,2.78,9.88,2.78,15.69,0,12.4-3.76,21.79-11.27,28.18-7.51,6.39-18.7,9.59-33.56,9.59Zm-5.88-55.78h-16.33v37.19h16.33c5.72,0,10.49-.61,14.33-1.83,3.84-1.22,6.76-3.21,8.78-5.98,2.01-2.77,3.02-6.39,3.02-10.87,0-5.37-1.55-9.74-4.65-13.12-3.48-3.6-10.64-5.4-21.48-5.4Z"/>
    <path class="cls-1" d="m417.04,133.1l-5.72-15.27h-48.67l-5.72,15.61c-2.23,6.09-4.14,10.2-5.72,12.33-1.58,2.13-4.16,3.2-7.76,3.2-3.05,0-5.74-1.13-8.08-3.4-2.34-2.27-3.51-4.84-3.51-7.72,0-1.66.27-3.38.82-5.15.54-1.77,1.44-4.23,2.69-7.39l30.62-79.02c.87-2.27,1.92-4.99,3.14-8.18,1.23-3.18,2.53-5.82,3.92-7.93s3.21-3.8,5.47-5.11c2.26-1.3,5.05-1.95,8.37-1.95s6.19.65,8.45,1.95c2.26,1.3,4.08,2.97,5.47,5.02,1.39,2.05,2.56,4.25,3.51,6.6.95,2.35,2.16,5.49,3.63,9.42l31.28,78.53c2.45,5.98,3.67,10.32,3.67,13.03s-1.16,5.41-3.47,7.76c-2.31,2.35-5.1,3.53-8.37,3.53-1.91,0-3.54-.35-4.9-1.04-1.36-.69-2.5-1.63-3.43-2.82-.93-1.19-1.92-3.02-2.98-5.48-1.06-2.46-1.97-4.63-2.74-6.52Zm-48.02-33.79h35.77l-18.05-50.22-17.72,50.22Z"/>
    <path class="cls-1" d="m467.77,38.06v88.57h49.16c3.92,0,6.93.97,9.02,2.9,2.1,1.94,3.14,4.37,3.14,7.3s-1.03,5.41-3.1,7.26c-2.07,1.85-5.09,2.78-9.06,2.78h-58.55c-5.28,0-9.08-1.19-11.39-3.57-2.31-2.38-3.47-6.22-3.47-11.54V38.06c0-4.98,1.1-8.71,3.31-11.21,2.2-2.49,5.1-3.74,8.7-3.74s6.6,1.23,8.86,3.69c2.26,2.46,3.39,6.21,3.39,11.25Z"/>
    <path class="cls-1" d="m662.73,97.41v23.32c0,3.1-.3,5.58-.9,7.43-.6,1.85-1.7,3.53-3.31,5.02-1.61,1.49-3.66,2.93-6.17,4.32-7.24,3.98-14.21,6.89-20.91,8.72-6.7,1.83-13.99,2.74-21.89,2.74-9.2,0-17.59-1.44-25.15-4.32-7.57-2.88-14.02-7.05-19.35-12.53-5.34-5.48-9.43-12.12-12.29-19.92-2.86-7.8-4.29-16.52-4.29-26.15s1.39-18.12,4.16-25.98c2.78-7.86,6.86-14.53,12.25-20.01,5.39-5.48,11.95-9.67,19.68-12.58,7.73-2.91,16.5-4.36,26.3-4.36,8.06,0,15.19,1.09,21.4,3.28,6.21,2.19,11.24,4.94,15.11,8.26,3.86,3.32,6.78,6.83,8.74,10.54,1.96,3.71,2.94,7,2.94,9.88,0,3.1-1.13,5.74-3.39,7.93-2.26,2.19-4.97,3.28-8.13,3.28-1.74,0-3.42-.41-5.02-1.24-1.61-.83-2.95-1.99-4.04-3.49-2.99-4.76-5.53-8.36-7.59-10.79-2.07-2.44-4.86-4.48-8.37-6.14s-7.99-2.49-13.43-2.49-10.62.98-15.03,2.95c-4.41,1.96-8.18,4.81-11.31,8.55-3.13,3.74-5.53,8.31-7.19,13.74-1.66,5.42-2.49,11.43-2.49,18.01,0,14.28,3.23,25.26,9.68,32.96,6.45,7.69,15.45,11.54,26.99,11.54,5.61,0,10.87-.75,15.8-2.24,4.93-1.49,9.92-3.62,14.99-6.39v-19.76h-18.78c-4.52,0-7.94-.69-10.25-2.07-2.31-1.38-3.47-3.74-3.47-7.06,0-2.71.97-4.95,2.9-6.72,1.93-1.77,4.56-2.66,7.88-2.66h27.52c3.38,0,6.23.3,8.57.91,2.34.61,4.23,1.96,5.68,4.07,1.44,2.1,2.16,5.26,2.16,9.46Z"/>
    <path class="cls-1" d="m701.7,94.83h-8.49v39.1c0,5.15-1.12,8.94-3.35,11.37-2.23,2.44-5.14,3.65-8.74,3.65-3.87,0-6.86-1.27-8.98-3.82s-3.18-6.28-3.18-11.21V40.3c0-5.31,1.17-9.16,3.51-11.54,2.34-2.38,6.12-3.57,11.35-3.57h39.44c5.45,0,10.1.24,13.96.71,3.87.47,7.35,1.43,10.45,2.86,3.76,1.61,7.08,3.9,9.96,6.89s5.08,6.46,6.57,10.42c1.5,3.96,2.25,8.15,2.25,12.58,0,9.08-2.52,16.33-7.55,21.75-5.04,5.42-12.67,9.27-22.91,11.54,4.3,2.32,8.41,5.76,12.33,10.29s7.42,9.37,10.49,14.48c3.07,5.12,5.47,9.74,7.19,13.86,1.71,4.12,2.57,6.96,2.57,8.51s-.5,3.2-1.51,4.77c-1.01,1.58-2.38,2.82-4.12,3.74s-3.76,1.37-6.04,1.37c-2.72,0-5.01-.65-6.86-1.95-1.85-1.3-3.44-2.95-4.78-4.94-1.34-1.99-3.14-4.93-5.43-8.8l-9.72-16.44c-3.49-6.03-6.6-10.62-9.35-13.78-2.75-3.15-5.54-5.31-8.37-6.47-2.83-1.16-6.4-1.74-10.7-1.74Zm13.88-51.13h-22.38v33.45h21.72c5.82,0,10.72-.51,14.7-1.54,3.97-1.02,7.01-2.77,9.11-5.23,2.1-2.46,3.14-5.85,3.14-10.17,0-3.38-.85-6.35-2.53-8.92s-4.03-4.5-7.02-5.77c-2.83-1.22-8.41-1.83-16.74-1.83Z"/>
    <path class="cls-1" d="m768.68,96.58v-58.52c0-4.98,1.1-8.71,3.31-11.21s5.1-3.74,8.7-3.74,6.74,1.25,8.94,3.74c2.2,2.49,3.31,6.22,3.31,11.21v59.85c0,6.81.75,12.49,2.25,17.06,1.5,4.57,4.15,8.11,7.96,10.62,3.81,2.52,9.15,3.78,16.01,3.78,9.47,0,16.17-2.56,20.09-7.68,3.92-5.12,5.88-12.88,5.88-23.28v-60.35c0-5.04,1.09-8.78,3.27-11.25,2.18-2.46,5.09-3.69,8.74-3.69s6.6,1.23,8.86,3.69c2.26,2.46,3.39,6.21,3.39,11.25v58.52c0,9.52-.91,17.46-2.74,23.82-1.83,6.37-5.27,11.95-10.33,16.77-4.36,4.1-9.42,7.08-15.19,8.96s-12.52,2.82-20.25,2.82c-9.2,0-17.12-1.01-23.76-3.03-6.64-2.02-12.06-5.15-16.25-9.38-4.19-4.23-7.27-9.66-9.23-16.27-1.96-6.61-2.94-14.51-2.94-23.7Z"/>
    <path class="cls-1" d="m925.33,99.48h-22.21v34.45c0,4.93-1.14,8.66-3.43,11.21-2.29,2.54-5.17,3.82-8.66,3.82s-6.59-1.26-8.82-3.78-3.35-6.21-3.35-11.08V40.3c0-5.42,1.22-9.3,3.67-11.62s6.34-3.49,11.68-3.49h31.11c9.2,0,16.28.72,21.23,2.16,4.9,1.38,9.13,3.68,12.7,6.89,3.56,3.21,6.27,7.14,8.12,11.79,1.85,4.65,2.78,9.88,2.78,15.69,0,12.4-3.76,21.79-11.27,28.18-7.51,6.39-18.7,9.59-33.56,9.59Zm-5.88-55.78h-16.33v37.19h16.33c5.72,0,10.49-.61,14.33-1.83,3.84-1.22,6.76-3.21,8.78-5.98,2.01-2.77,3.02-6.39,3.02-10.87,0-5.37-1.55-9.74-4.66-13.12-3.48-3.6-10.64-5.4-21.48-5.4Z"/>
    <path class="cls-1" d="m1026.37,23.12c12.41,0,23.07,2.56,31.97,7.68,8.9,5.12,15.64,12.4,20.21,21.83,4.57,9.44,6.86,20.52,6.86,33.24,0,9.41-1.25,17.96-3.76,25.65-2.5,7.69-6.26,14.36-11.27,20-5.01,5.64-11.16,9.96-18.46,12.95-7.3,2.99-15.65,4.48-25.07,4.48s-17.75-1.54-25.15-4.61c-7.41-3.07-13.58-7.4-18.54-12.99-4.95-5.59-8.7-12.31-11.23-20.17s-3.8-16.35-3.8-25.48,1.32-17.93,3.96-25.73c2.64-7.8,6.46-14.44,11.47-19.92s11.11-9.67,18.29-12.58,15.35-4.36,24.5-4.36Zm34.46,62.59c0-8.91-1.42-16.63-4.25-23.16-2.83-6.53-6.87-11.47-12.13-14.82-5.25-3.35-11.28-5.02-18.09-5.02-4.85,0-9.32.93-13.43,2.78-4.11,1.85-7.65,4.55-10.62,8.09-2.97,3.54-5.31,8.07-7.02,13.57-1.71,5.51-2.57,11.69-2.57,18.55s.86,13.17,2.57,18.76c1.71,5.59,4.14,10.22,7.27,13.9,3.13,3.68,6.72,6.43,10.78,8.26,4.06,1.83,8.51,2.74,13.35,2.74,6.21,0,11.91-1.58,17.11-4.73,5.2-3.15,9.34-8.02,12.41-14.61,3.08-6.59,4.61-14.69,4.61-24.32Z"/>
  </g>
  <rect class="cls-1" x="21" y="165.12" width="1064" height="37" rx="6" ry="6"/>
  <g>
    <path class="cls-1" d="m213.98,247c0,2.6-.66,4.93-1.97,7-1.32,2.07-3.24,3.69-5.78,4.86-2.54,1.17-5.54,1.76-9.02,1.76-4.17,0-7.61-.8-10.32-2.4-1.92-1.15-3.48-2.69-4.68-4.61s-1.8-3.79-1.8-5.61c0-1.05.36-1.96,1.08-2.71.72-.75,1.64-1.13,2.75-1.13.9,0,1.67.29,2.29.88.62.59,1.16,1.46,1.6,2.61.54,1.37,1.12,2.51,1.74,3.43.62.92,1.5,1.68,2.64,2.27s2.62.89,4.47.89c2.54,0,4.6-.6,6.18-1.8,1.59-1.2,2.38-2.7,2.38-4.5,0-1.42-.43-2.58-1.28-3.47s-1.96-1.57-3.31-2.04-3.17-.97-5.43-1.49c-3.04-.72-5.58-1.57-7.62-2.53s-3.67-2.29-4.87-3.96c-1.2-1.67-1.8-3.75-1.8-6.23s.63-4.46,1.9-6.3c1.27-1.83,3.1-3.25,5.5-4.23s5.23-1.48,8.47-1.48c2.59,0,4.84.33,6.73.98,1.89.65,3.46,1.52,4.71,2.61s2.16,2.22,2.74,3.41c.58,1.19.86,2.35.86,3.49,0,1.04-.36,1.97-1.08,2.8s-1.62,1.24-2.69,1.24c-.98,0-1.73-.25-2.23-.75-.51-.5-1.06-1.31-1.66-2.45-.77-1.62-1.69-2.88-2.77-3.79s-2.81-1.36-5.19-1.36c-2.21,0-3.99.49-5.35,1.48-1.35.99-2.03,2.17-2.03,3.56,0,.86.23,1.6.69,2.23.46.63,1.1,1.16,1.9,1.61.81.45,1.62.8,2.45,1.05.83.25,2.19.63,4.09,1.11,2.38.57,4.54,1.19,6.47,1.88,1.93.68,3.57,1.51,4.93,2.49,1.35.98,2.41,2.21,3.17,3.71.76,1.49,1.14,3.32,1.14,5.49Z"/>
    <path class="cls-1" d="m238.42,216.21c4.38,0,8.14.9,11.28,2.71s5.52,4.38,7.13,7.71c1.61,3.33,2.42,7.24,2.42,11.73,0,3.32-.44,6.34-1.33,9.05-.88,2.71-2.21,5.07-3.98,7.06s-3.94,3.52-6.51,4.57c-2.58,1.05-5.52,1.58-8.85,1.58s-6.26-.54-8.88-1.62-4.79-2.61-6.54-4.59c-1.75-1.97-3.07-4.35-3.96-7.12-.89-2.77-1.34-5.77-1.34-8.99s.47-6.33,1.4-9.08c.93-2.75,2.28-5.1,4.05-7.03,1.77-1.93,3.92-3.41,6.46-4.44,2.54-1.03,5.42-1.54,8.65-1.54Zm12.16,22.09c0-3.14-.5-5.87-1.5-8.17-1-2.3-2.43-4.05-4.28-5.23-1.85-1.18-3.98-1.77-6.38-1.77-1.71,0-3.29.33-4.74.98-1.45.65-2.7,1.61-3.75,2.86-1.05,1.25-1.87,2.85-2.48,4.79-.61,1.94-.91,4.13-.91,6.55s.3,4.65.91,6.62c.6,1.97,1.46,3.61,2.56,4.91s2.37,2.27,3.8,2.91c1.43.64,3,.97,4.71.97,2.19,0,4.2-.56,6.04-1.67,1.83-1.11,3.29-2.83,4.38-5.16,1.09-2.32,1.63-5.19,1.63-8.58Z"/>
    <path class="cls-1" d="m273.55,221.48v31.26h17.35c1.38,0,2.44.34,3.19,1.03.74.68,1.11,1.54,1.11,2.58s-.37,1.91-1.1,2.56c-.73.65-1.8.98-3.2.98h-20.67c-1.86,0-3.2-.42-4.02-1.26-.82-.84-1.23-2.2-1.23-4.07v-33.08c0-1.76.39-3.08,1.17-3.96s1.8-1.32,3.07-1.32,2.33.44,3.13,1.3,1.2,2.19,1.2,3.97Z"/>
    <path class="cls-1" d="m296.51,242.14v-20.65c0-1.76.39-3.08,1.17-3.96.78-.88,1.8-1.32,3.07-1.32s2.38.44,3.16,1.32c.78.88,1.17,2.2,1.17,3.96v21.12c0,2.4.26,4.41.79,6.02s1.47,2.86,2.81,3.75c1.34.89,3.23,1.33,5.65,1.33,3.34,0,5.71-.9,7.09-2.71,1.38-1.81,2.08-4.55,2.08-8.22v-21.3c0-1.78.38-3.1,1.15-3.97.77-.87,1.8-1.3,3.08-1.3s2.33.44,3.13,1.3,1.2,2.19,1.2,3.97v20.65c0,3.36-.32,6.16-.97,8.41-.64,2.25-1.86,4.22-3.65,5.92-1.54,1.45-3.32,2.5-5.36,3.16-2.04.66-4.42,1-7.15,1-3.25,0-6.04-.36-8.39-1.07-2.34-.71-4.26-1.82-5.74-3.31-1.48-1.49-2.57-3.41-3.26-5.74-.69-2.33-1.04-5.12-1.04-8.37Z"/>
    <path class="cls-1" d="m375.89,246.33c0,1.37-.33,2.85-.99,4.44s-1.71,3.15-3.13,4.69-3.24,2.78-5.45,3.73c-2.21.96-4.78,1.44-7.72,1.44-2.23,0-4.26-.21-6.08-.64-1.83-.43-3.48-1.1-4.97-2.01-1.49-.91-2.86-2.11-4.11-3.59-1.11-1.35-2.07-2.86-2.85-4.53-.79-1.67-1.38-3.45-1.77-5.35-.39-1.89-.59-3.91-.59-6.04,0-3.46.49-6.55,1.48-9.29.99-2.73,2.41-5.07,4.25-7.02,1.84-1.94,4.01-3.42,6.48-4.44,2.48-1.01,5.12-1.52,7.93-1.52,3.42,0,6.47.69,9.14,2.08,2.67,1.39,4.72,3.1,6.14,5.14,1.42,2.04,2.13,3.97,2.13,5.79,0,1-.35,1.88-1.04,2.64-.69.76-1.53,1.14-2.51,1.14-1.1,0-1.92-.26-2.46-.79-.55-.53-1.16-1.44-1.83-2.72-1.11-2.13-2.43-3.72-3.93-4.78-1.51-1.05-3.37-1.58-5.58-1.58-3.52,0-6.32,1.36-8.4,4.07-2.08,2.71-3.13,6.57-3.13,11.57,0,3.34.46,6.12,1.38,8.34s2.23,3.87,3.92,4.96c1.69,1.09,3.67,1.64,5.94,1.64,2.46,0,4.54-.62,6.24-1.86,1.7-1.24,2.98-3.06,3.85-5.46.36-1.13.82-2.05,1.35-2.77.54-.71,1.4-1.07,2.59-1.07,1.02,0,1.89.36,2.62,1.08.73.72,1.1,1.62,1.1,2.7Z"/>
    <path class="cls-1" d="m382.51,255.32v-33.84c0-1.76.39-3.08,1.18-3.96.79-.88,1.81-1.32,3.06-1.32s2.33.44,3.13,1.3c.8.87,1.2,2.19,1.2,3.97v33.84c0,1.78-.4,3.11-1.2,3.98-.8.88-1.84,1.32-3.13,1.32s-2.24-.44-3.04-1.33c-.8-.89-1.2-2.21-1.2-3.97Z"/>
    <path class="cls-1" d="m417.81,216.21c4.38,0,8.14.9,11.28,2.71s5.52,4.38,7.13,7.71c1.61,3.33,2.42,7.24,2.42,11.73,0,3.32-.44,6.34-1.33,9.05-.88,2.71-2.21,5.07-3.98,7.06s-3.94,3.52-6.51,4.57c-2.58,1.05-5.52,1.58-8.85,1.58s-6.26-.54-8.88-1.62-4.79-2.61-6.54-4.59c-1.75-1.97-3.07-4.35-3.96-7.12-.89-2.77-1.34-5.77-1.34-8.99s.47-6.33,1.4-9.08c.93-2.75,2.28-5.1,4.05-7.03,1.77-1.93,3.92-3.41,6.46-4.44,2.54-1.03,5.42-1.54,8.65-1.54Zm12.16,22.09c0-3.14-.5-5.87-1.5-8.17-1-2.3-2.43-4.05-4.28-5.23-1.85-1.18-3.98-1.77-6.38-1.77-1.71,0-3.29.33-4.74.98-1.45.65-2.7,1.61-3.75,2.86-1.05,1.25-1.87,2.85-2.48,4.79-.61,1.94-.91,4.13-.91,6.55s.3,4.65.91,6.62c.6,1.97,1.46,3.61,2.56,4.91s2.37,2.27,3.8,2.91c1.43.64,3,.97,4.71.97,2.19,0,4.2-.56,6.04-1.67,1.83-1.11,3.29-2.83,4.38-5.16,1.09-2.32,1.63-5.19,1.63-8.58Z"/>
    <path class="cls-1" d="m455.71,221.42l16.46,25.31v-25.55c0-1.66.35-2.9,1.05-3.73.7-.83,1.65-1.25,2.84-1.25s2.2.42,2.91,1.25c.71.83,1.07,2.08,1.07,3.73v33.78c0,3.77-1.54,5.65-4.61,5.65-.77,0-1.46-.11-2.08-.34-.62-.22-1.19-.58-1.73-1.07-.54-.49-1.04-1.06-1.5-1.71s-.92-1.32-1.38-2.01l-16.05-25.02v25.17c0,1.64-.38,2.88-1.12,3.72-.75.84-1.71,1.26-2.88,1.26s-2.18-.42-2.91-1.27c-.73-.85-1.1-2.08-1.1-3.71v-33.13c0-1.41.15-2.51.46-3.31.36-.88.97-1.6,1.82-2.15.85-.56,1.76-.84,2.74-.84.77,0,1.43.13,1.97.38.55.25,1.03.6,1.44,1.03.41.43.84.99,1.27,1.67.43.68.88,1.4,1.34,2.14Z"/>
    <path class="cls-1" d="m515.83,223.65h-19.28v10.55h17.75c1.31,0,2.28.3,2.93.89.64.6.97,1.38.97,2.36s-.32,1.77-.95,2.39c-.63.62-1.61.92-2.94.92h-17.75v12.22h19.95c1.34,0,2.36.32,3.04.95s1.02,1.48,1.02,2.53-.34,1.84-1.02,2.48-1.7.95-3.04.95h-23.26c-1.86,0-3.2-.42-4.02-1.26-.82-.84-1.22-2.2-1.22-4.07v-32.29c0-1.25.18-2.27.55-3.06.36-.79.94-1.37,1.71-1.73.78-.36,1.77-.54,2.98-.54h22.6c1.36,0,2.38.31,3.04.92.66.62.99,1.42.99,2.42s-.33,1.83-.99,2.45c-.66.62-1.68.92-3.04.92Z"/>
    <path class="cls-1" d="m558.05,247c0,2.6-.66,4.93-1.97,7-1.32,2.07-3.24,3.69-5.78,4.86s-5.54,1.76-9.02,1.76c-4.17,0-7.61-.8-10.32-2.4-1.92-1.15-3.48-2.69-4.68-4.61s-1.8-3.79-1.8-5.61c0-1.05.36-1.96,1.08-2.71.72-.75,1.64-1.13,2.75-1.13.9,0,1.67.29,2.29.88.62.59,1.16,1.46,1.6,2.61.54,1.37,1.12,2.51,1.74,3.43.62.92,1.5,1.68,2.64,2.27s2.62.89,4.47.89c2.54,0,4.6-.6,6.18-1.8,1.59-1.2,2.38-2.7,2.38-4.5,0-1.42-.43-2.58-1.28-3.47s-1.96-1.57-3.31-2.04-3.17-.97-5.43-1.49c-3.04-.72-5.58-1.57-7.62-2.53s-3.67-2.29-4.87-3.96c-1.2-1.67-1.8-3.75-1.8-6.23s.63-4.46,1.9-6.3c1.27-1.83,3.1-3.25,5.5-4.23s5.23-1.48,8.47-1.48c2.59,0,4.84.33,6.73.98,1.89.65,3.46,1.52,4.71,2.61,1.25,1.08,2.16,2.22,2.74,3.41.58,1.19.86,2.35.86,3.49,0,1.04-.36,1.97-1.08,2.8s-1.62,1.24-2.7,1.24c-.98,0-1.72-.25-2.23-.75-.51-.5-1.06-1.31-1.66-2.45-.77-1.62-1.69-2.88-2.77-3.79s-2.81-1.36-5.19-1.36c-2.21,0-3.99.49-5.35,1.48-1.35.99-2.03,2.17-2.03,3.56,0,.86.23,1.6.69,2.23.46.63,1.1,1.16,1.9,1.61.81.45,1.62.8,2.45,1.05.83.25,2.19.63,4.09,1.11,2.38.57,4.54,1.19,6.47,1.88,1.93.68,3.57,1.51,4.93,2.49,1.35.98,2.41,2.21,3.17,3.71.76,1.49,1.14,3.32,1.14,5.49Z"/>
    <path class="cls-1" d="m582.54,216.94h11.15c2.9,0,5.39.27,7.46.82,2.08.55,3.96,1.57,5.65,3.08,4.4,3.83,6.6,9.65,6.6,17.46,0,2.58-.22,4.93-.66,7.06-.44,2.13-1.12,4.05-2.05,5.76-.92,1.71-2.1,3.24-3.54,4.58-1.13,1.04-2.37,1.87-3.72,2.49-1.35.63-2.79,1.07-4.34,1.32-1.55.25-3.29.38-5.23.38h-11.15c-1.56,0-2.73-.24-3.52-.72s-1.3-1.15-1.54-2.02-.36-2-.36-3.38v-31.49c0-1.88.41-3.23,1.24-4.07.83-.84,2.16-1.26,4.01-1.26Zm3.31,6.88v29.15h6.49c1.42,0,2.54-.04,3.34-.12.81-.08,1.64-.27,2.51-.59.87-.31,1.61-.75,2.25-1.32,2.86-2.46,4.29-6.7,4.29-12.71,0-4.24-.63-7.41-1.89-9.52-1.26-2.11-2.81-3.45-4.66-4.03s-4.07-.87-6.69-.87h-5.65Z"/>
    <path class="cls-1" d="m647.36,223.65h-19.28v10.55h17.75c1.31,0,2.28.3,2.93.89.64.6.96,1.38.96,2.36s-.32,1.77-.95,2.39c-.63.62-1.61.92-2.94.92h-17.75v12.22h19.95c1.34,0,2.36.32,3.04.95.68.63,1.02,1.48,1.02,2.53s-.34,1.84-1.02,2.48c-.68.63-1.7.95-3.04.95h-23.26c-1.86,0-3.2-.42-4.02-1.26-.82-.84-1.23-2.2-1.23-4.07v-32.29c0-1.25.18-2.27.55-3.06s.94-1.37,1.71-1.73,1.77-.54,2.98-.54h22.6c1.36,0,2.38.31,3.04.92s.99,1.42.99,2.42-.33,1.83-.99,2.45-1.68.92-3.04.92Z"/>
    <path class="cls-1" d="m706.81,246.33c0,1.37-.33,2.85-1,4.44-.66,1.59-1.71,3.15-3.13,4.69s-3.24,2.78-5.45,3.73c-2.21.96-4.78,1.44-7.72,1.44-2.23,0-4.26-.21-6.08-.64-1.83-.43-3.48-1.1-4.97-2.01s-2.86-2.11-4.11-3.59c-1.12-1.35-2.07-2.86-2.85-4.53-.79-1.67-1.38-3.45-1.77-5.35-.39-1.89-.59-3.91-.59-6.04,0-3.46.5-6.55,1.48-9.29.99-2.73,2.41-5.07,4.25-7.02s4.01-3.42,6.49-4.44c2.48-1.01,5.12-1.52,7.93-1.52,3.42,0,6.47.69,9.14,2.08,2.67,1.39,4.72,3.1,6.14,5.14,1.42,2.04,2.13,3.97,2.13,5.79,0,1-.35,1.88-1.04,2.64s-1.53,1.14-2.51,1.14c-1.09,0-1.92-.26-2.46-.79s-1.16-1.44-1.83-2.72c-1.12-2.13-2.43-3.72-3.93-4.78-1.51-1.05-3.37-1.58-5.58-1.58-3.52,0-6.32,1.36-8.4,4.07-2.09,2.71-3.13,6.57-3.13,11.57,0,3.34.46,6.12,1.38,8.34s2.23,3.87,3.92,4.96c1.69,1.09,3.67,1.64,5.94,1.64,2.46,0,4.54-.62,6.24-1.86,1.7-1.24,2.98-3.06,3.85-5.46.36-1.13.82-2.05,1.35-2.77s1.4-1.07,2.59-1.07c1.02,0,1.89.36,2.62,1.08.73.72,1.1,1.62,1.1,2.7Z"/>
    <path class="cls-1" d="m740.13,255.03l-2.02-5.39h-17.18l-2.02,5.51c-.79,2.15-1.46,3.6-2.02,4.35-.56.75-1.47,1.13-2.74,1.13-1.08,0-2.03-.4-2.85-1.2s-1.24-1.71-1.24-2.72c0-.59.1-1.19.29-1.82.19-.62.51-1.49.95-2.61l10.81-27.89c.31-.8.68-1.76,1.11-2.88.43-1.12.89-2.06,1.38-2.8.49-.74,1.13-1.34,1.93-1.8.8-.46,1.78-.69,2.95-.69s2.19.23,2.98.69c.8.46,1.44,1.05,1.93,1.77.49.72.9,1.5,1.24,2.33s.76,1.94,1.28,3.32l11.04,27.71c.86,2.11,1.3,3.64,1.3,4.6s-.41,1.91-1.23,2.74-1.8,1.24-2.95,1.24c-.67,0-1.25-.12-1.73-.37-.48-.25-.88-.58-1.21-1-.33-.42-.68-1.06-1.05-1.93-.37-.87-.7-1.64-.96-2.3Zm-16.95-11.92h12.62l-6.37-17.72-6.25,17.72Z"/>
    <path class="cls-1" d="m762.52,221.48v31.26h17.35c1.38,0,2.44.34,3.18,1.03.74.68,1.11,1.54,1.11,2.58s-.37,1.91-1.09,2.56c-.73.65-1.8.98-3.2.98h-20.67c-1.86,0-3.2-.42-4.02-1.26-.82-.84-1.23-2.2-1.23-4.07v-33.08c0-1.76.39-3.08,1.17-3.96.78-.88,1.8-1.32,3.07-1.32s2.33.44,3.13,1.3c.8.87,1.2,2.19,1.2,3.97Z"/>
    <path class="cls-1" d="m788.71,255.32v-33.84c0-1.76.39-3.08,1.18-3.96.79-.88,1.81-1.32,3.05-1.32s2.33.44,3.13,1.3c.8.87,1.2,2.19,1.2,3.97v33.84c0,1.78-.4,3.11-1.2,3.98-.8.88-1.84,1.32-3.13,1.32s-2.24-.44-3.04-1.33c-.8-.89-1.2-2.21-1.2-3.97Z"/>
    <path class="cls-1" d="m810.73,216.94h11.15c2.9,0,5.39.27,7.46.82,2.08.55,3.96,1.57,5.65,3.08,4.4,3.83,6.6,9.65,6.6,17.46,0,2.58-.22,4.93-.66,7.06-.44,2.13-1.12,4.05-2.05,5.76-.92,1.71-2.1,3.24-3.54,4.58-1.13,1.04-2.37,1.87-3.72,2.49-1.35.63-2.79,1.07-4.34,1.32-1.55.25-3.29.38-5.23.38h-11.15c-1.56,0-2.73-.24-3.52-.72s-1.3-1.15-1.54-2.02-.36-2-.36-3.38v-31.49c0-1.88.41-3.23,1.24-4.07.83-.84,2.16-1.26,4.01-1.26Zm3.31,6.88v29.15h6.49c1.42,0,2.54-.04,3.34-.12.81-.08,1.64-.27,2.51-.59.87-.31,1.61-.75,2.25-1.32,2.86-2.46,4.29-6.7,4.29-12.71,0-4.24-.63-7.41-1.89-9.52-1.26-2.11-2.81-3.45-4.66-4.03s-4.07-.87-6.69-.87h-5.65Z"/>
    <path class="cls-1" d="m872.49,255.03l-2.02-5.39h-17.18l-2.02,5.51c-.79,2.15-1.46,3.6-2.02,4.35-.56.75-1.47,1.13-2.74,1.13-1.08,0-2.03-.4-2.85-1.2s-1.24-1.71-1.24-2.72c0-.59.1-1.19.29-1.82.19-.62.51-1.49.95-2.61l10.81-27.89c.31-.8.68-1.76,1.11-2.88.43-1.12.89-2.06,1.38-2.8.49-.74,1.13-1.34,1.93-1.8.8-.46,1.78-.69,2.95-.69s2.19.23,2.98.69c.8.46,1.44,1.05,1.93,1.77.49.72.9,1.5,1.24,2.33s.76,1.94,1.28,3.32l11.04,27.71c.86,2.11,1.3,3.64,1.3,4.6s-.41,1.91-1.23,2.74-1.8,1.24-2.95,1.24c-.67,0-1.25-.12-1.73-.37-.48-.25-.88-.58-1.21-1-.33-.42-.68-1.06-1.05-1.93-.37-.87-.7-1.64-.96-2.3Zm-16.95-11.92h12.62l-6.37-17.72-6.25,17.72Z"/>
    <path class="cls-1" d="m891.8,216.94h11.15c2.9,0,5.39.27,7.46.82,2.08.55,3.96,1.57,5.65,3.08,4.4,3.83,6.6,9.65,6.6,17.46,0,2.58-.22,4.93-.66,7.06-.44,2.13-1.12,4.05-2.05,5.76-.92,1.71-2.1,3.24-3.54,4.58-1.13,1.04-2.37,1.87-3.72,2.49-1.35.63-2.79,1.07-4.34,1.32-1.55.25-3.29.38-5.23.38h-11.15c-1.56,0-2.73-.24-3.52-.72s-1.3-1.15-1.54-2.02-.36-2-.36-3.38v-31.49c0-1.88.41-3.23,1.24-4.07.83-.84,2.16-1.26,4.01-1.26Zm3.31,6.88v29.15h6.49c1.42,0,2.54-.04,3.34-.12.81-.08,1.64-.27,2.51-.59.87-.31,1.61-.75,2.25-1.32,2.86-2.46,4.29-6.7,4.29-12.71,0-4.24-.63-7.41-1.89-9.52-1.26-2.11-2.81-3.45-4.66-4.03s-4.07-.87-6.69-.87h-5.65Z"/>
  </g>
  <g>
    <path class="cls-1" d="m1106.98,139.45c0,1.73-.44,3.29-1.32,4.67-.88,1.38-2.16,2.46-3.85,3.24-1.69.78-3.7,1.17-6.01,1.17-2.78,0-5.07-.53-6.88-1.6-1.28-.77-2.32-1.79-3.12-3.08-.8-1.28-1.2-2.53-1.2-3.74,0-.7.24-1.31.72-1.81.48-.5,1.09-.75,1.83-.75.6,0,1.11.2,1.53.59.42.39.77.97,1.07,1.74.36.91.75,1.67,1.16,2.29s1,1.12,1.76,1.51,1.75.6,2.98.6c1.69,0,3.06-.4,4.12-1.2s1.58-1.8,1.58-3c0-.95-.29-1.72-.85-2.31-.57-.59-1.31-1.04-2.21-1.36s-2.11-.64-3.62-1c-2.02-.48-3.72-1.04-5.08-1.69s-2.45-1.52-3.25-2.64-1.2-2.5-1.2-4.15.42-2.98,1.27-4.2c.85-1.22,2.07-2.17,3.67-2.82,1.6-.66,3.48-.99,5.65-.99,1.73,0,3.22.22,4.49.65,1.26.44,2.31,1.02,3.14,1.74.83.72,1.44,1.48,1.83,2.28.38.79.58,1.57.58,2.32,0,.69-.24,1.31-.72,1.87s-1.08.83-1.8.83c-.65,0-1.15-.17-1.49-.5-.34-.33-.71-.88-1.11-1.63-.51-1.08-1.13-1.92-1.84-2.53-.72-.61-1.87-.91-3.46-.91-1.47,0-2.66.33-3.56.99s-1.35,1.45-1.35,2.37c0,.57.15,1.07.46,1.48s.73.77,1.27,1.07c.54.3,1.08.53,1.63.7s1.46.42,2.73.74c1.59.38,3.03.79,4.31,1.25,1.29.46,2.38,1.01,3.29,1.66s1.61,1.47,2.11,2.47.76,2.22.76,3.66Z"/>
    <path class="cls-1" d="m1109.5,148.53c-.79,0-1.48-.26-2.06-.78-.58-.52-.86-1.25-.86-2.19,0-.79.28-1.48.83-2.05s1.23-.86,2.04-.86,1.5.28,2.07.85c.57.57.85,1.25.85,2.06,0,.92-.29,1.65-.85,2.18-.57.53-1.24.79-2.01.79Z"/>
    <path class="cls-1" d="m1132.79,144.8l-1.34-3.59h-11.45l-1.34,3.67c-.53,1.43-.97,2.4-1.35,2.9-.37.5-.98.75-1.83.75-.72,0-1.35-.27-1.9-.8s-.83-1.14-.83-1.82c0-.39.06-.79.19-1.21s.34-1,.63-1.74l7.21-18.59c.21-.53.45-1.17.74-1.92.29-.75.6-1.37.92-1.87.33-.5.76-.9,1.29-1.2s1.19-.46,1.97-.46,1.46.15,1.99.46c.53.31.96.7,1.29,1.18.33.48.6,1,.83,1.55.22.55.51,1.29.85,2.22l7.36,18.48c.58,1.41.87,2.43.87,3.07s-.27,1.27-.82,1.83c-.54.55-1.2.83-1.97.83-.45,0-.83-.08-1.15-.24s-.59-.38-.81-.66-.45-.71-.7-1.29c-.25-.58-.46-1.09-.64-1.53Zm-11.3-7.95h8.42l-4.25-11.82-4.17,11.82Z"/>
    <path class="cls-1" d="m1142.25,148.53c-.79,0-1.48-.26-2.06-.78-.58-.52-.86-1.25-.86-2.19,0-.79.28-1.48.83-2.05s1.23-.86,2.04-.86,1.5.28,2.07.85c.57.57.85,1.25.85,2.06,0,.92-.29,1.65-.85,2.18-.57.53-1.24.79-2.01.79Z"/>
    <path class="cls-1" d="m1156.96,119.41h7.44c1.93,0,3.59.18,4.98.55,1.38.36,2.64,1.05,3.77,2.05,2.93,2.55,4.4,6.43,4.4,11.64,0,1.72-.15,3.29-.44,4.71s-.75,2.7-1.36,3.84c-.61,1.14-1.4,2.16-2.36,3.06-.76.69-1.58,1.24-2.48,1.66s-1.86.71-2.89.88c-1.03.17-2.19.25-3.49.25h-7.44c-1.04,0-1.82-.16-2.34-.48s-.87-.77-1.03-1.35-.24-1.33-.24-2.26v-21c0-1.25.27-2.16.83-2.71.55-.56,1.44-.84,2.67-.84Zm2.21,4.59v19.43h4.32c.95,0,1.69-.03,2.23-.08s1.1-.18,1.67-.39,1.08-.5,1.5-.88c1.91-1.64,2.86-4.47,2.86-8.48,0-2.83-.42-4.94-1.26-6.35-.84-1.41-1.87-2.3-3.1-2.69s-2.72-.58-4.46-.58h-3.77Z"/>
    <path class="cls-1" d="m1197.18,123.88h-12.85v7.03h11.84c.87,0,1.52.2,1.95.6.43.4.64.92.64,1.57s-.21,1.18-.63,1.59c-.42.41-1.08.62-1.96.62h-11.84v8.14h13.3c.9,0,1.57.21,2.03.63.45.42.68.99.68,1.69s-.23,1.23-.68,1.65c-.46.42-1.13.63-2.03.63h-15.51c-1.24,0-2.14-.28-2.68-.84-.54-.56-.82-1.46-.82-2.71v-21.52c0-.83.12-1.51.37-2.04s.62-.91,1.14-1.15,1.18-.36,1.99-.36h15.06c.91,0,1.59.21,2.03.62.44.41.66.95.66,1.61s-.22,1.22-.66,1.63c-.44.41-1.12.62-2.03.62Z"/>
    <path class="cls-1" d="m1230.83,139c0,.91-.22,1.9-.66,2.96s-1.14,2.1-2.08,3.12-2.16,1.85-3.63,2.49c-1.47.64-3.19.96-5.15.96-1.49,0-2.84-.14-4.05-.43s-2.32-.73-3.31-1.34c-.99-.61-1.91-1.4-2.74-2.39-.74-.9-1.38-1.9-1.9-3.02s-.92-2.3-1.18-3.56-.39-2.6-.39-4.02c0-2.3.33-4.37.99-6.19.66-1.82,1.6-3.38,2.83-4.68,1.23-1.3,2.67-2.28,4.32-2.96s3.41-1.02,5.28-1.02c2.28,0,4.31.46,6.09,1.39s3.14,2.07,4.09,3.43,1.42,2.65,1.42,3.86c0,.66-.23,1.25-.69,1.76s-1.02.76-1.67.76c-.73,0-1.28-.18-1.64-.53-.37-.35-.77-.96-1.22-1.82-.74-1.42-1.62-2.48-2.62-3.18s-2.25-1.05-3.72-1.05c-2.34,0-4.21.91-5.6,2.71-1.39,1.81-2.08,4.38-2.08,7.71,0,2.23.31,4.08.92,5.56s1.49,2.58,2.61,3.31c1.13.73,2.45,1.09,3.96,1.09,1.64,0,3.03-.41,4.16-1.24s1.99-2.04,2.57-3.64c.24-.75.54-1.37.9-1.85.36-.48.93-.71,1.73-.71.68,0,1.26.24,1.75.72.49.48.73,1.08.73,1.8Z"/>
    <path class="cls-1" d="m1233.18,148.53c-.79,0-1.48-.26-2.06-.78-.58-.52-.86-1.25-.86-2.19,0-.79.28-1.48.83-2.05s1.23-.86,2.04-.86,1.5.28,2.07.85c.57.57.85,1.25.85,2.06,0,.92-.29,1.65-.85,2.18-.57.53-1.24.79-2.01.79Z"/>
    <path class="cls-1" d="m1242.62,122.73l6.38,19.2,6.4-19.34c.33-1.02.58-1.72.75-2.12.17-.4.44-.75.83-1.07.38-.32.91-.48,1.58-.48.49,0,.94.12,1.35.37.42.25.74.58.98.99s.36.82.36,1.24c0,.29-.04.6-.12.93s-.17.66-.29.98-.23.65-.35.99l-6.82,18.71c-.24.72-.49,1.4-.73,2.04s-.53,1.21-.85,1.7-.75.89-1.28,1.2c-.53.31-1.18.47-1.95.47s-1.42-.15-1.95-.46c-.53-.31-.96-.71-1.29-1.21-.33-.5-.61-1.07-.85-1.71-.24-.64-.49-1.32-.73-2.03l-6.71-18.55c-.12-.34-.23-.67-.36-1-.12-.33-.22-.68-.31-1.05s-.12-.7-.12-.96c0-.66.26-1.27.79-1.82s1.18-.82,1.98-.82c.97,0,1.66.3,2.07.91s.82,1.57,1.24,2.9Z"/>
    <path class="cls-1" d="m1259.78,148.53c-.79,0-1.48-.26-2.06-.78-.58-.52-.86-1.25-.86-2.19,0-.79.28-1.48.83-2.05s1.23-.86,2.04-.86,1.5.28,2.07.85c.57.57.85,1.25.85,2.06,0,.92-.29,1.65-.85,2.18-.57.53-1.24.79-2.01.79Z"/>
  </g>
</svg>